<?xml version="1.0" encoding="iso-8859-1"?>
<!-- Generator: Adobe Illustrator 19.0.0, SVG Export Plug-In . SVG Version: 6.00 Build 0)  -->
<svg version="1.1" id="Capa_1" xmlns="http://www.w3.org/2000/svg" xmlns:xlink="http://www.w3.org/1999/xlink" x="0px" y="0px"
	 viewBox="0 0 512 512" style="enable-background:new 0 0 512 512;" xml:space="preserve">
<circle style="fill:#FF6838;" cx="256" cy="256" r="256"/>
<path style="fill:#AE4E32;" d="M512,256c0-12.301-0.887-24.393-2.564-36.231L420.667,131L91.333,381l128.436,128.436
	C231.607,511.113,243.699,512,256,512C397.385,512,512,397.385,512,256z"/>
<rect x="91.33" y="131" style="fill:#FFFFFF;" width="329.33" height="250"/>
<g>
	<rect x="256" y="131" style="fill:#E0E0E0;" width="164.67" height="250"/>
	<rect x="91.33" y="131" style="fill:#E0E0E0;" width="329.33" height="32.17"/>
</g>
<rect x="256" y="131" style="fill:#C0C0C0;" width="164.67" height="32.17"/>
<g>
	<circle style="fill:#FF6838;" cx="111.17" cy="147.08" r="8.917"/>
	<circle style="fill:#FF6838;" cx="137.92" cy="147.08" r="8.917"/>
	<circle style="fill:#FF6838;" cx="164.67" cy="147.08" r="8.917"/>
</g>
<rect x="264.24" y="177.03" style="fill:#333333;" width="133.14" height="232.49"/>
<rect x="330.5" y="177.03" style="fill:#1A1A1A;" width="66.884" height="232.49"/>
<rect x="278.24" y="191.2" style="fill:#FFDC00;" width="105.15" height="182.19"/>
<rect x="330.5" y="191.2" style="fill:#FFC000;" width="52.886" height="182.19"/>
<circle style="fill:#4D4D4D;" cx="330.81" cy="390.23" r="10.412"/>
<path style="fill:#333333;" d="M330.812,379.82c-0.105,0-0.208,0.013-0.312,0.016v20.793c0.105,0.003,0.207,0.016,0.312,0.016
	c5.751,0,10.412-4.662,10.412-10.413S336.563,379.82,330.812,379.82z"/>
<polygon style="fill:#00BAFF;" points="200.427,300.758 200.427,317.758 225.624,317.758 186.959,356.423 198.979,368.443 
	237.645,329.778 237.645,354.976 254.645,354.976 254.645,300.758 "/>
<polygon style="fill:#008CC3;" points="355.468,356.422 316.802,317.757 341.999,317.757 341.999,300.757 287.781,300.757 
	287.781,354.975 304.781,354.975 304.781,329.778 343.446,368.443 "/>
<g>
	<rect x="330.5" y="300.76" style="fill:#0074A3;" width="11.499" height="17"/>
	<polygon style="fill:#0074A3;" points="355.468,356.422 330.5,331.455 330.5,355.497 343.446,368.443 	"/>
</g>
<polygon style="fill:#008CC3;" points="355.464,208.167 343.442,196.146 304.778,234.811 304.778,209.614 287.778,209.614 
	287.778,263.833 341.996,263.832 341.996,246.832 316.799,246.832 "/>
<g>
	<polygon style="fill:#0074A3;" points="355.464,208.167 343.442,196.146 330.5,209.089 330.5,233.131 	"/>
	<rect x="330.5" y="246.83" style="fill:#0074A3;" width="11.496" height="17"/>
</g>
<polygon style="fill:#00BAFF;" points="237.644,209.613 237.644,234.81 198.979,196.143 186.957,208.163 225.623,246.83 
	200.426,246.829 200.425,263.829 254.644,263.831 254.644,209.613 "/>
<g>
</g>
<g>
</g>
<g>
</g>
<g>
</g>
<g>
</g>
<g>
</g>
<g>
</g>
<g>
</g>
<g>
</g>
<g>
</g>
<g>
</g>
<g>
</g>
<g>
</g>
<g>
</g>
<g>
</g>
</svg>
